<svg width="46" height="31" viewBox="0 0 46 31" fill="none" xmlns="http://www.w3.org/2000/svg">
<path d="M40.3079 30.9648C38.9425 30.992 37.5993 30.9993 36.2561 30.9997C32.1838 31.0008 28.1115 30.9991 24 30.9929C24.1017 30.2947 24.2566 29.6044 24.38 28.9092C24.5468 27.9693 24.7006 27.027 24.839 26.0831C24.9552 25.2909 25.0471 24.4956 25.1394 23.7006C25.254 22.7137 25.3605 21.726 25.4651 20.7381C25.5046 20.3653 25.5371 19.9915 25.5583 19.6175C25.5935 18.9959 25.6556 18.4495 25.7077 17.8293C25.8018 16.7107 25.7342 17.438 25.8422 16.3205C25.8509 16.2298 25.979 14.217 25.982 14.1259C26.0391 12.3876 26.1013 10.6494 26.1517 8.91097C26.1874 7.67662 26.2118 6.44193 26.2325 5.20726C26.2431 4.57694 26.2445 3.94614 26.2308 3.31592C26.2215 2.89004 26.2378 2.4121 26.2454 1.98711C26.2572 1.32797 26.2454 0.981264 26.2635 0.0358111C26.3702 0.0251431 26.4768 0.00538422 26.5835 0.0051937C27.8081 0.00300595 29.0329 -0.00622874 30.2573 0.00691158C31.2621 0.0176944 32.2675 0.0392212 33.271 0.0857043C35.2547 0.177589 37.2264 0.407013 39.1378 0.901224C40.1684 1.1677 41.1617 1.5998 42.1222 2.04892C43.0472 2.48138 43.4571 3.3519 43.6144 4.22652C43.8564 5.57207 43.9672 6.94232 44.0531 8.30649C44.1189 9.35225 43.7242 10.3337 43.3348 11.3016C42.8972 12.3893 42.1036 13.2579 41.3046 14.1181C41.0636 14.3775 40.7463 14.5755 40.4947 14.7771C41.3322 15.2878 42.1724 15.7427 42.9435 16.2828C44.4254 17.3209 45.5768 18.6221 45.8052 20.3852C45.9847 21.7714 46.0402 23.1865 45.9715 24.5812C45.9138 25.7527 45.7719 26.9497 45.2638 28.0532C44.7903 29.0816 43.9149 29.7766 42.878 30.2865C42.0876 30.6752 41.2263 30.881 40.3079 30.9648ZM36.6955 18.3982C35.8313 18.3982 34.9672 18.3982 34.0464 18.3982C34.0464 19.3072 34.0464 20.171 34.0464 21.1074C33.0193 21.1074 32.0484 21.1074 31.062 21.1074C31.062 22.0449 31.062 22.9079 31.062 23.8102C32.0683 23.8102 33.0423 23.8102 34.0724 23.8102C34.0724 24.7909 34.0724 25.7329 34.0724 26.6666C35.1317 26.6666 36.1331 26.6666 37.1766 26.6666C37.1766 25.7065 37.1766 24.774 37.1766 23.7892C38.2022 23.7892 39.1867 23.7892 40.1692 23.7892C40.1692 22.8818 40.1692 22.0282 40.1692 21.1215C39.1577 21.1215 38.1733 21.1215 37.1634 21.1215C37.1634 20.1975 37.1634 19.3268 37.1634 18.426C37.0178 18.4155 36.8971 18.4069 36.6955 18.3982ZM34.8097 12.2136C35.0136 12.24 35.2173 12.288 35.4214 12.2892C36.3356 12.2944 37.0047 11.6701 37.0011 10.8302C36.9979 10.0773 36.235 9.3949 35.3985 9.39669C34.7404 9.3981 34.0635 9.86635 33.894 10.4374C33.688 11.1317 34.0032 11.7764 34.8097 12.2136ZM37.0942 7.98303C37.133 8.14795 37.1789 8.19987 37.2245 8.30709C37.4637 8.8693 37.9389 9.1825 38.5551 9.22634C39.1557 9.26906 39.6663 9.00061 39.9836 8.52062C40.2947 8.04996 40.3157 7.52107 40.0157 7.04282C39.7208 6.5727 39.2312 6.24915 38.6462 6.28391C37.8288 6.33247 37.0375 6.74879 37.0942 7.98303ZM33.2582 8.94022C33.4279 8.77541 33.6275 8.62919 33.7617 8.44232C34.1852 7.85277 33.9468 6.90342 33.2623 6.52895C32.604 6.16878 31.6446 6.28538 31.2006 6.88454C30.8047 7.41879 30.8411 8.1585 31.2796 8.64939C31.7412 9.16617 32.4455 9.2846 33.2582 8.94022ZM35.469 3.29049C34.5874 3.35679 34.0822 3.93636 34.1455 4.84844C34.184 5.40429 34.5325 5.77189 35.0688 5.99154C35.5683 6.19612 36.0675 6.15948 36.4757 5.83957C36.9556 5.46346 37.3151 4.99885 37.1076 4.35389C36.8602 3.58477 36.4313 3.29778 35.469 3.29049Z" fill="white"/>
<path d="M4.58879e-07 14.1467C2.78829 13.2766 5.57658 12.4432 8.32069 11.623C7.96658 13.0466 7.60593 14.4005 7.29716 15.7656C7.00444 17.0598 6.9541 18.3746 7.17407 19.6858C7.30155 20.4457 7.41266 21.2217 7.66646 21.9447C8.08893 23.1481 8.81823 24.171 9.91353 24.8987C11.2326 25.7751 12.7255 25.2959 13.6393 24.1794C14.692 22.8932 15.0235 21.3494 15.308 19.7855C15.6453 17.931 15.5762 16.0567 15.5323 14.1905C15.4935 12.5404 15.2008 10.9168 14.8245 9.30158C14.3577 7.29793 13.627 5.38438 12.9502 3.44999C12.7082 2.75848 12.5014 2.05511 12.2834 1.37232C14.0275 1.26132 15.7682 1.2432 17.48 1.01539C19.1742 0.789912 20.8393 0.352844 22.5589 0C22.6368 0.658474 22.7547 1.35447 22.7944 2.05474C22.873 3.4396 22.9293 4.82644 22.9557 6.21317C22.9822 7.59982 23.0483 8.99397 22.9398 10.3729C22.7853 12.3365 22.5471 14.2985 22.2333 16.2439C21.939 18.0687 21.567 19.8875 21.1076 21.6789C20.5183 23.9767 19.646 26.1711 18.19 28.1028C17.3998 29.1512 16.3721 29.8811 15.147 30.343C14.5119 30.5825 13.8501 30.754 13.1438 30.9836C11.0874 31.0078 9.08752 31.0045 7.06858 30.9786C5.46683 30.7219 4.23344 29.9406 3.34011 28.6463C2.48101 27.4016 1.82325 26.0521 1.37434 24.62C0.622855 22.2227 0.429841 19.8571 0.175038 17.3428C0.175033 17.2171 0.0867176 16.4629 0.0476512 15.7086C1.43749e-05 14.7888 -1.35952e-05 15.0142 4.58879e-07 14.1467Z" fill="white"/>
<path d="M22 8C22 8.5 22 9.5 22.5 10.5C23 11.5 23.5 12.5 24.5 13C25.5 13.5 27.5 14 27.5 15.5" stroke="white" stroke-width="2" stroke-linecap="round"/>
</svg>
