<svg width="592" height="127" viewBox="0 0 592 127" fill="none" xmlns="http://www.w3.org/2000/svg">
<g clip-path="url(#clip0_307_528)">
<path d="M0.31299 59.288C11.2559 55.8274 22.1989 52.5126 32.9685 49.2504C31.5787 54.9126 30.1633 60.2972 28.9515 65.7268C27.8027 70.8744 27.6051 76.1035 28.4684 81.3187C28.9687 84.341 29.4048 87.4274 30.4009 90.3029C32.0589 95.0892 34.9211 99.1578 39.2197 102.052C44.3966 105.538 50.2558 103.632 53.8419 99.1913C57.9732 94.0757 59.2743 87.9352 60.3908 81.7152C61.7148 74.3395 61.4437 66.8848 61.2714 59.4622C61.1191 52.8993 59.9701 46.4418 58.4933 40.0174C56.6615 32.0483 53.7938 24.4375 51.1373 16.7438C50.1877 13.9935 49.3761 11.1959 48.5205 8.48028C55.3653 8.0388 62.1971 7.96672 68.9153 7.06064C75.5645 6.16386 82.099 4.4255 88.8481 3.02213C89.1537 5.64109 89.6162 8.40929 89.7721 11.1945C90.0806 16.7025 90.3015 22.2184 90.4054 27.7339C90.5093 33.249 90.7687 38.7939 90.3429 44.2784C89.7366 52.0882 88.8017 59.8917 87.5702 67.6291C86.4149 74.8868 84.9552 82.1211 83.1521 89.2461C80.8394 98.3848 77.4159 107.113 71.7015 114.796C68.6004 118.966 64.5671 121.869 59.7593 123.706C57.2664 124.658 54.6691 125.34 51.8971 126.254C43.8266 126.35 35.978 126.337 28.0544 126.234C21.7682 125.213 16.9276 122.105 13.4216 116.957C10.05 112.007 7.46856 106.639 5.70674 100.944C2.75745 91.4088 1.99995 82 0.999946 72C0.999923 71.5 0.653321 68.5 0.500001 65.5C0.313045 61.8419 0.312935 62.7382 0.31299 59.288Z" fill="#005A69"/>
<path d="M592 3.50003C592 3.50003 591.848 4.25827 591.5 5.00003C591.152 5.74179 591.5 5.00003 591.152 5.76991C590.23 8.26806 589.402 10.8009 588.466 13.2936C585.766 20.4833 582.864 27.6034 580.361 34.8599C578.46 40.3713 576.898 46.012 575.459 51.6641C573.934 57.6511 572.597 63.6939 571.427 69.7598C570.295 75.6308 569.448 81.5577 568.536 87.4692C568.131 90.0939 567.866 92.7401 567.553 95.3783C567.142 98.8316 566.709 102.283 566.354 105.742C566.077 108.448 565.887 111.163 565.687 113.877C565.381 118.028 565.1 122.181 564.66 126.353C554.169 126.361 543.825 126.348 533.531 126.242C534.075 125.194 534.643 124.27 535.051 123.281C537.105 118.301 539.288 113.365 541.105 108.299C544.202 99.6683 547.079 90.9586 549.99 82.2628C550.308 81.3117 550.531 80.1714 550.316 79.227C549.003 73.4401 547.871 67.5833 546.076 61.9396C542.559 50.8853 539.965 39.6098 537.241 28.3593C535.604 21.5956 533.956 14.834 532.258 8.08526C531.827 6.37132 531.185 4.70994 530.583 2.85177C531.473 2.85177 532.142 2.81499 532.805 2.8582C535.539 3.0363 538.271 3.37615 541.006 3.39864C544.744 3.42937 548.484 3.22935 552.223 3.11756C552.737 3.10217 553.286 3.12518 553.757 2.95741C554.915 2.54451 555.456 2.90801 555.753 4.08245C557.268 10.0779 558.888 16.0474 560.369 22.0509C561.369 26.1021 562.198 30.1948 563.125 34.362C563.263 34.0766 563.398 33.8174 563.517 33.551C565.378 29.3783 567.148 25.1622 569.122 21.0433C571.083 16.9516 573.205 12.9336 575.347 8.93135C576.287 7.17412 577.421 5.51469 578.547 3.86449C578.739 3.58196 579.337 3.44304 579.741 3.45432C581.812 3.51211 583.881 3.72278 585.951 3.72187C588.072 3.72093 589.879 3.6038 592 3.50003Z" fill="#005A69"/>
<path d="M388.425 126.231C384.242 126.338 380.147 126.352 375.904 126.345C375.143 126.345 374.31 126.346 373.765 126.345C367.039 126.328 360.858 126.391 354.133 126.345C351.796 126.328 349.47 125.43 347.368 124.2C344.176 122.333 342.734 119.38 341.72 116.187C340.528 112.429 339.743 108.597 340.386 104.546C341.461 97.7727 342.36 90.9692 343.208 84.1629C343.754 79.7838 344.14 75.382 344.482 70.9815C344.781 67.1287 344.964 63.2653 345.117 59.4033C345.363 53.2135 345.759 47.0183 345.681 40.8304C345.621 36.0144 345.224 31.8201 345 27C344.722 21.0358 342.769 14.7473 341.034 9.10379C340.47 7.26954 339.586 5.53281 338.78 3.58735C339.247 3.53776 339.784 3.43174 340.32 3.43127C351.322 3.42163 362.323 3.44893 373.324 3.39605C374.897 3.38848 375.247 4.03954 375.529 5.45762C376.495 10.3101 376.599 15.2031 376.377 20.0938C376.128 25.5857 375.638 31.0685 375.171 36.5482C374.818 40.6867 374.391 44.8209 373.894 48.9447C373.472 52.443 372.87 55.9195 372.409 59.4137C372.121 61.5961 371.836 63.7886 371.743 65.9847C371.475 72.325 371.05 78.6749 371.191 85.01C371.275 88.8057 372.29 92.5826 372.919 96.3626C373.002 96.8586 373.238 97.3439 373.475 97.7973C374.561 99.8781 376.068 100.232 377.645 98.4565C379.202 96.704 380.593 94.7395 381.715 92.6834C385.131 86.4245 387.749 79.8594 388.622 72.7174C389.262 67.4809 389.935 62.2474 390.478 57.0008C390.891 53.0141 391 51 391.25 46.7997C391.529 42.1308 391.87 37.2194 391.472 32.5C391.372 31.3151 391.234 28.443 391.101 27.2645C390.597 22.7843 390.036 18.3102 389.455 13.8391C389.112 11.2009 388.701 8.57125 388.3 5.94082C388.179 5.14593 387.99 4.36126 387.818 3.49816C398.132 3.49816 408.435 3.49816 418.977 3.49816C418.977 5.15077 418.922 6.7568 418.989 8.35777C419.135 11.8554 419.365 15.3496 419.518 18.8471C419.592 20.5539 419.608 22.2654 419.588 23.974C419.498 31.5827 419.378 39.191 419.285 46.7997C419.257 49.1017 419.316 51.4049 419.274 53.7065C419.194 57.9643 419.275 62.2385 418.916 66.4746C418.374 72.8566 417.331 79.1979 416.844 85.5825C416.456 90.6774 415.613 95.6636 414.242 100.553C413.054 104.789 411.481 108.917 410.232 113.138C408.741 118.177 405.622 121.953 401.288 124.738C400.102 125.501 398.532 125.904 397.104 126.01C394.253 126.222 391.378 126.114 388.425 126.231Z" fill="#005A69"/>
<path d="M252.512 126.205C241.65 126.344 230.785 126.361 219.92 126.377C217.84 126.38 215.761 126.374 213.537 126.221C211.505 114.294 210.638 102.462 211.398 90.5922C208.242 97.1017 205.077 103.632 201.765 110.464C196.893 104.346 193.08 98.1512 189.985 91.4579C189.94 93.7727 190.193 96.0225 190.206 98.2736C190.222 100.951 189.988 103.629 189.937 106.307C189.809 112.98 189.724 119.654 189.622 126.327C178.659 126.342 167.695 126.357 156.586 126.35C156.026 121.73 155.556 117.137 155.216 112.535C155.007 109.706 154.905 106.863 154.917 104.027C154.934 99.9453 155.002 95.8596 155.216 91.7845C155.818 80.2998 157.089 68.887 159.859 57.704C161.558 50.8505 163.319 43.9866 165.58 37.3046C167.828 30.6634 170.58 24.175 173.412 17.751C175.413 13.2106 177.879 8.86974 180.227 4.48659C181 3.50005 181.57 2.9294 182.515 2.22307C186.182 24.1929 194.371 44.2166 206.683 62.9219C207.392 59.9599 207.999 57.2058 208.713 54.4799C210.602 47.2785 213.075 40.2713 216.153 33.4923C218.404 28.5341 220.624 23.5372 223.29 18.798C225.264 15.2881 227.866 12.114 230.32 8.8902C231.615 7.19017 233.193 5.70411 234.643 4.12143C235 4.00005 235 4.00005 235 4.00005C234.95 4.95127 234.919 6.19502 234.852 7.14504C234.829 7.45782 234.686 7.9039 234.679 8.35673C234.565 16.2898 234.31 24.2249 234.407 32.1557C234.487 38.6441 234.786 45.1454 235.362 51.6079C235.925 57.9218 236.986 64.1907 237.785 70.4848C239.026 80.2665 241.485 89.7826 244.234 99.2207C246.641 107.484 249.304 115.674 251.853 123.896C252.078 124.623 252.291 125.354 252.512 126.205Z" fill="#005A69"/>
<path d="M315.81 126.236C310.731 126.345 305.735 126.374 300.738 126.375C285.59 126.379 270.441 126.373 255.147 126.348C255.526 123.572 256.102 120.826 256.561 118.062C257.181 114.324 257.753 110.577 258.268 106.823C258.701 103.673 259.043 100.51 259.386 97.3487C259.812 93.424 260.208 89.496 260.598 85.5675C260.744 84.0851 260.865 82.5987 260.944 81.1113C261.075 78.6392 261.306 76.4665 261.5 73.9999C261.85 69.5518 261.599 72.4441 262 67.9999C262.033 67.6393 262.509 59.6349 262.52 59.2724C262.733 52.3598 262.964 45.4476 263.151 38.5343C263.284 33.6256 263.375 28.7155 263.452 23.8056C263.491 21.299 263.497 18.7905 263.446 16.2842C263.411 14.5906 263.472 12.69 263.5 10.9999C263.544 8.37871 263.5 6.99994 263.567 3.24013C263.964 3.1977 264.361 3.11913 264.758 3.11837C269.313 3.10967 273.869 3.07295 278.424 3.1252C282.161 3.16808 285.901 3.25369 289.634 3.43854C297.013 3.80394 304.348 4.7163 311.458 6.68164C315.291 7.74136 318.986 9.4597 322.559 11.2457C326 12.9655 327.525 16.4273 328.11 19.9055C329.01 25.2563 329.422 30.7055 329.742 36.1304C329.987 40.2891 328.518 44.1922 327.07 48.041C325.442 52.3665 322.49 55.8208 319.518 59.2415C318.622 60.2732 317.441 61.0607 316.505 61.8621C319.621 63.8933 322.746 65.7021 325.615 67.8502C331.127 71.9781 335.41 77.1528 336.259 84.164C336.927 89.6769 337.133 95.3043 336.878 100.85C336.664 105.509 336.135 110.269 334.246 114.658C332.484 118.747 329.228 121.511 325.371 123.539C322.431 125.085 319.227 125.903 315.81 126.236ZM302.373 76.2623C299.158 76.2623 295.944 76.2623 292.518 76.2623C292.518 79.8773 292.518 83.3124 292.518 87.0361C288.698 87.0361 285.086 87.0361 281.417 87.0361C281.417 90.7645 281.417 94.1961 281.417 97.7844C285.16 97.7844 288.783 97.7844 292.615 97.7844C292.615 101.684 292.615 105.431 292.615 109.144C296.556 109.144 300.281 109.144 304.162 109.144C304.162 105.325 304.162 101.617 304.162 97.7011C307.977 97.7011 311.639 97.7011 315.294 97.7011C315.294 94.0927 315.294 90.6979 315.294 87.0921C311.532 87.0921 307.87 87.0921 304.113 87.0921C304.113 83.4179 304.113 79.9553 304.113 76.373C303.572 76.3314 303.123 76.2968 302.373 76.2623ZM295.358 51.6678C296.116 51.7729 296.874 51.9639 297.633 51.9686C301.034 51.9894 303.523 49.5067 303.51 46.1667C303.498 43.1725 300.66 40.4587 297.548 40.4658C295.1 40.4714 292.582 42.3335 291.952 44.6046C291.185 47.3654 292.358 49.9294 295.358 51.6678ZM303.856 34.8441C304 35.4999 304.171 35.7064 304.341 36.1328C305.23 38.3685 306.998 39.6141 309.29 39.7884C311.524 39.9583 313.423 38.8907 314.604 36.9819C315.761 35.1102 315.839 33.007 314.723 31.1051C313.627 29.2356 311.805 27.9489 309.629 28.0871C306.588 28.2802 303.645 29.9359 303.856 34.8441ZM289.587 38.6506C290.218 37.9951 290.96 37.4137 291.459 36.6706C293.035 34.3261 292.148 30.5508 289.602 29.0616C287.153 27.6293 283.584 28.093 281.933 30.4757C280.46 32.6002 280.595 35.5419 282.226 37.494C283.943 39.5491 286.563 40.0201 289.587 38.6506ZM297.81 16.1831C294.531 16.4468 292.652 18.7515 292.887 22.3787C293.031 24.5891 294.327 26.051 296.322 26.9244C298.18 27.738 300.037 27.5923 301.555 26.3201C303.34 24.8244 304.678 22.9768 303.906 20.412C302.985 17.3534 301.39 16.2121 297.81 16.1831Z" fill="#005A69"/>
<path d="M103.891 126.327C93.656 126.342 83.4205 126.357 73.0396 126.349C73.356 125.427 73.8515 124.544 74.2744 123.627C76.4898 118.826 78.8364 114.078 80.853 109.195C83.4538 102.898 86.1216 96.5944 88.1466 90.104C90.5996 82.2418 92.5686 74.2184 94.4607 66.1978C96.8224 56.1863 98.7202 46.0651 101.149 36.0708C102.755 29.4629 104.864 22.9708 106.899 16.4738C108.017 12.9047 109.485 9.44527 110.716 5.90924C111.055 4.93571 111.627 4.73821 112.56 4.64411C117.066 4.18936 121.563 3.64337 126.065 3.14091C127.244 3.00933 128.425 2.87417 129.609 2.81661C132.353 2.68318 135.099 2.57092 137.846 2.49599C142.418 2.37128 146.994 2.12139 151.562 2.22082C156.88 2.33656 162.191 2.77133 167.801 3.08414C167.393 4.52518 167.042 5.75926 166.695 6.99439C164.243 15.7217 161.552 24.3919 159.416 33.1951C157.752 40.0494 156.745 47.0636 155.509 54.0177C154.631 58.9535 153.77 63.8955 153.066 68.8578C152.583 72.2616 152.437 75.7113 152.045 79.1298C150.967 88.55 151.004 98.0085 151.184 107.458C151.265 111.705 151.959 115.939 152.334 120.182C152.506 122.131 152.58 124.089 152.702 126.185C152.301 126.25 152 126.244 151.45 126.25C145.5 126.324 139.928 126.332 134.24 126.324C134.063 126.323 134.062 126.324 133.638 126.324C131.011 126.34 128.384 126.357 125.553 126.236C125.286 125.181 125.124 124.256 125.175 123.343C125.454 118.317 125.75 113.291 126.11 108.269C126.348 104.946 126.726 101.632 126.996 98.3104C127.143 96.4994 127.196 94.6808 127.284 93.0097C123.526 92.7086 119.979 92.39 116.425 92.1865C116.018 92.1632 115.311 92.7057 115.187 93.118C112.503 102.032 110.373 111.118 106.692 119.717C105.75 121.917 104.825 124.124 103.891 126.327ZM121.553 71.5878C121.176 72.7477 120.799 73.9076 120.373 75.2209C122.774 75.2209 124.974 75.2209 127.14 75.2209C127.97 66.467 128.793 57.789 129.638 48.8803C126.935 56.5005 124.299 63.9327 121.553 71.5878Z" fill="#005A69"/>
<path d="M441.066 1.07986C445.351 0.973473 449.551 0.959617 453.981 1.0584C454.677 1.19538 455.147 1.19252 455.61 1.24869C457.806 1.51547 459.851 1.77904 461.138 4.11882C463.448 8.31712 465.799 12.4674 467.003 17.1479C468.3 22.1922 469.745 27.2039 470.875 32.2848C472.184 38.1658 473.256 44.1001 474.366 50.0232C475.447 55.7909 476.534 61.5601 477.451 67.3548C478.042 71.0947 478.493 74.8725 478.716 78.6502C478.987 83.2557 479.095 87.8815 479.013 92.4939C478.926 97.3662 477.28 101.782 474.797 106.018C472.778 109.462 470.517 112.723 467.342 115.01C461.068 119.53 453.974 122.514 446.489 124.48C443.523 125.26 440.473 125.719 437.46 126.324C433.157 126.338 428.854 126.352 424.403 126.345C422.131 126.031 419.996 125.794 417.884 125.427C416.124 125.12 414.391 124.661 412.504 124.237C413.251 121.28 414.013 118.48 414.661 115.655C416.631 107.082 418.716 98.5306 420.443 89.9085C421.587 84.1977 422.288 78.392 423.011 72.607C423.578 68.0777 423.904 63.5175 424.282 58.9665C424.542 55.8411 424.634 52.7012 424.926 49.5794C426.082 37.2362 425.319 24.8647 425.533 12.5082C425.575 10.054 425.482 7.59602 425.587 5.14551C425.608 4.65078 426.16 3.86321 426.604 3.75203C429.834 2.94328 433.088 2.21179 436.359 1.58643C437.871 1.29751 439.439 1.30131 441.066 1.07986ZM454.336 57.6936C452.797 54.046 451.033 50.5175 448.806 46.8621C450.185 63.1186 448.172 78.6036 443.503 93.8904C445.515 92.5257 447.412 91.0854 449.238 89.5593C451.604 87.581 453.962 85.5874 456.22 83.4904C457.096 82.6776 457.858 81.6454 458.377 80.5721C459.645 77.9539 459.705 75.2307 459.059 72.3654C457.939 67.4027 456.639 62.5186 454.336 57.6936Z" fill="#005A69"/>
<path d="M502.48 0.987562C506.679 0.973633 510.878 0.959703 515.225 0.966538C516.574 1.17844 517.774 1.3808 518.977 1.55747C520.128 1.72633 521.085 2.09857 521.787 3.15567C525.381 8.57022 527.879 14.4548 529.425 20.7345C530.828 26.4332 532.237 32.1355 533.416 37.8824C535.11 46.1345 536.815 54.3951 538.104 62.7151C539.169 69.5925 539.563 76.5704 540.398 83.4866C541.099 89.3004 540.815 95.0756 538.761 100.505C535.746 108.481 530.711 114.863 522.714 118.698C516.409 121.722 509.981 124.278 503.095 125.595C501.731 125.856 500.336 125.963 498.873 126.232C494.486 126.338 490.182 126.352 485.643 126.252C481.447 126.209 477.701 125.113 473.887 124.214C474.719 120.714 475.563 117.396 476.294 114.054C478.391 104.463 480.631 94.8983 482.445 85.2545C483.712 78.5237 484.452 71.6894 485.268 64.8825C485.751 60.8562 485.995 56.7972 486.22 52.746C486.503 47.6515 486.777 42.5514 486.84 37.4512C486.941 29.1576 486.885 20.8619 486.853 12.5673C486.846 10.8219 486.629 9.25099 486.629 7.34071C486.629 6.00002 486.084 4.08484 488.147 3.60721C491.493 2.83281 494.874 2.20544 498.25 1.56854C499.647 1.30502 501.07 1.17713 502.48 0.987562ZM516.319 58.9631C514.386 54.9852 512.454 51.0073 510.521 47.0294C511.514 63.0957 509.504 78.5784 504.592 94.0427C505.234 93.6602 505.644 93.4869 505.967 93.2133C509.576 90.1617 513.067 86.9626 516.799 84.0686C520.595 81.1237 521.471 77.349 520.402 73.0302C519.248 68.3689 517.778 63.7851 516.319 58.9631Z" fill="#005A69"/>
</g>
<defs>
<clipPath id="clip0_307_528">
<rect width="592" height="127" fill="white"/>
</clipPath>
</defs>
</svg>
